<svg width="42" height="34" viewBox="0 0 42 34" fill="none" xmlns="http://www.w3.org/2000/svg">
<path d="M29.4444 33.0002V29.4446C29.4444 27.5586 28.6952 25.7499 27.3616 24.4163C26.0281 23.0827 24.2193 22.3335 22.3333 22.3335H8.11111C6.22513 22.3335 4.41639 23.0827 3.0828 24.4163C1.7492 25.7499 1 27.5586 1 29.4446V33.0002" stroke="#FF014F" stroke-width="2" stroke-linecap="round" stroke-linejoin="round"/>
<path d="M15.2222 15.2222C19.1496 15.2222 22.3333 12.0385 22.3333 8.11111C22.3333 4.18375 19.1496 1 15.2222 1C11.2948 1 8.11108 4.18375 8.11108 8.11111C8.11108 12.0385 11.2948 15.2222 15.2222 15.2222Z" stroke="#FF014F" stroke-width="2" stroke-linecap="round" stroke-linejoin="round"/>
<path d="M40.1111 33V29.4445C40.1099 27.8689 39.5855 26.3383 38.6202 25.093C37.6549 23.8478 36.3033 22.9584 34.7778 22.5645" stroke="#FF014F" stroke-width="2" stroke-linecap="round" stroke-linejoin="round"/>
<path d="M27.6667 1.23096C29.1963 1.6226 30.5521 2.5122 31.5203 3.75951C32.4884 5.00681 33.014 6.54088 33.014 8.11985C33.014 9.69882 32.4884 11.2329 31.5203 12.4802C30.5521 13.7275 29.1963 14.6171 27.6667 15.0087" stroke="#FF014F" stroke-width="2" stroke-linecap="round" stroke-linejoin="round"/>
</svg>
